<svg width="35" height="36" viewBox="0 0 35 36" fill="none" xmlns="http://www.w3.org/2000/svg">
<path d="M10.15 0.5H24.85C25.9493 0.5 28.0081 1.17582 29 1.5L34 5.5L35 10.65V25.35L33.8902 29.9649C33.8902 29.9649 32.7855 31.7687 32.0271 32.5271C31.1449 33.4093 29 34.6128 29 34.6128C29 34.6128 26.2943 35.5 24.85 35.5H10.15L5 34.5C5 34.5 3.60364 32.6923 2.28677 30.8199C1.11174 29.1491 0 27.1046 0 25.35V10.65C0 10.65 0.199948 8.34258 0.580823 7.2657L2.97287 3.47287C4.87636 1.56937 7.45805 0.5 10.15 0.5ZM9.8 4C9.8 3.86912 6 5.5 6 5.5C6 5.5 4.5 7.2657 3.5 10.3V25.7C3.5 25.7 3.90959 27.0406 4.5 28C4.71239 28.3451 5.7271 30.2033 6 30.5L9.8 32H25.2L28.5 31C28.5 31 30.5 28.5 30.5 28.6737C30.5 28.6737 31.5 26.6053 31.5 25.7V10.3C31.5 9.19952 31.4948 8.39975 31 7.5C30.4733 6.54215 28.2343 5 28.2343 5C27.2749 4.40959 25.2 4 25.2 4H9.8ZM26.6875 6.625C27.2677 6.625 27.8241 6.85547 28.2343 7.2657C28.6445 7.67594 28.875 8.23234 28.875 8.8125C28.875 9.39266 28.6445 9.94906 28.2343 10.3593C27.8241 10.7695 27.2677 11 26.6875 11C26.1073 11 25.5509 10.7695 25.1407 10.3593C24.7305 9.94906 24.5 9.39266 24.5 8.8125C24.5 8.23234 24.7305 7.67594 25.1407 7.2657C25.5509 6.85547 26.1073 6.625 26.6875 6.625ZM17.5 9.25C19.8206 9.25 22.0462 10.1719 23.6872 11.8128C25.3281 13.4538 26.25 15.6794 26.25 18C26.25 20.3206 25.3281 22.5462 23.6872 24.1872C22.0462 25.8281 19.8206 26.75 17.5 26.75C15.1794 26.75 12.9538 25.8281 11.3128 24.1872C9.67187 22.5462 8.75 20.3206 8.75 18C8.75 15.6794 9.67187 13.4538 11.3128 11.8128C12.9538 10.1719 15.1794 9.25 17.5 9.25ZM17.5 12.75C16.1076 12.75 14.7723 13.3031 13.7877 14.2877C12.8031 15.2723 12.25 16.6076 12.25 18C12.25 19.3924 12.8031 20.7277 13.7877 21.7123C14.7723 22.6969 16.1076 23.25 17.5 23.25C18.8924 23.25 20.2277 22.6969 21.2123 21.7123C22.1969 20.7277 22.75 19.3924 22.75 18C22.75 16.6076 22.1969 15.2723 21.2123 14.2877C20.2277 13.3031 18.8924 12.75 17.5 12.75Z" fill="#D6DECB"/>
</svg>
