<svg width="565" height="611" viewBox="0 0 565 611" fill="none" xmlns="http://www.w3.org/2000/svg">
<path d="M357.027 158.296C358.402 156.43 358.922 152.26 359.027 150.012C354.245 145.236 348.939 162.004 357.027 158.296ZM322.79 327.815C322.571 323.821 326.24 320.476 324.947 316.353C319.803 315.509 309.22 334.195 317.532 332.348C315.428 334.467 316.859 337.382 313.691 338.16C314.306 347.875 335.55 323.816 322.786 327.815H322.79ZM155.643 405.932C159.465 402.444 153.715 396.446 149.654 399.457C146.791 403.685 151.21 409.091 155.643 405.932ZM148.042 408.552C140.23 403.461 140.121 412.14 145.756 413.71C145.56 411.148 149.158 411.491 148.042 408.552ZM17.9321 489.046C26.0916 490.868 24.3929 476.348 27.9383 471.72C30.0331 458.693 27.1032 466.867 22.1693 466.666C22.7705 475.093 16.9777 481.096 17.9321 489.041V489.046ZM38.269 498.293C33.8027 494.481 32.3139 501.948 34.633 504.768C37.9254 505.379 40.0775 500.875 38.269 498.293ZM16.4481 531.089C18.7003 523.974 20.1318 513.181 13.585 524.886C20.1891 523.125 12.9409 533.432 10.3164 534.739C5.05327 542.78 -1.43623 537.168 0.28158 548.692C3.20663 547.761 7.59658 551.192 6.90945 546.363C12.5734 549.56 9.67226 544.097 8.34096 541.596C14.6253 540.093 10.1781 542.923 13.1413 542.341C14.0956 538.48 16.3717 541.548 17.369 535.589C22.1502 531.619 24.2545 530.096 16.4528 531.094L16.4481 531.089ZM39.6003 574.988L38.9323 576.11C41.9623 581.254 47.3352 576.382 39.6003 574.988ZM40.3017 578.329C32.9104 577.923 33.5832 593.24 37.7298 582.194C38.4789 580.652 40.5117 580.046 40.3017 578.329Z" fill="#1E1C1A"/>
<path d="M436.834 6.21976e-05C455.52 20.6328 468.427 51.2575 496.256 62.0129C498.541 64.3511 493.822 62.2944 494.562 63.7069C495.292 67.0995 504.401 66.9993 497.911 63.6973C517.065 61.8555 511.453 74.5768 520.467 73.5938C530.884 82.2783 555.448 38.0925 546.769 64.3892C540.165 77.373 535.56 79.1958 545.619 91.6212C545.037 88.0472 544.731 87.3029 548.425 89.0732C545.752 93.2388 545.981 96.6697 548.487 102.114C545.929 101.728 547.146 103.479 548.677 103.574C554.742 102.567 557.119 96.8653 560.549 98.2157C568.871 96.1687 560.483 103.474 556.355 103.541C553.879 112.817 552.49 106.433 545.48 109.372C544.011 112.388 538.49 109.844 542.756 112.85C532.454 123.491 532.907 113.132 528.45 116.2C533.942 122.986 516.287 119.33 513 116.911C478.782 126.13 485.076 165.893 477.207 162.672C467.296 153.424 450.419 146.391 438.304 140.011C429.07 124.679 413.367 140.541 405.56 147.927C398.78 141.571 394.547 126.808 384.169 141.314C378.791 152.484 395.301 155.185 402.85 153.271C409.607 157.952 399.586 160.267 407.364 164.743C409.516 165.635 410.904 164.108 411.52 167.763C411.692 171.871 409.048 169.199 407.483 172.735C404.692 174.811 405.097 172.945 403.394 172.053C400.946 169.743 396.15 173.274 394.895 171.137C398.532 164.743 389.985 175.25 387.905 175.589C388.888 181.51 387.504 181.854 381.964 183.476C380.929 184.941 379.951 189.245 377.426 186.277C365.406 185.666 376.658 167.563 376.691 162.018C374.644 153.644 362.262 153.424 365.459 144.048C370.369 139.057 362.19 128.879 373.537 128.764C376.453 127.638 379.297 119.02 381.015 125.958C383.214 124.67 385.295 118.204 389.527 116.348C389.184 112.846 386.65 109.458 383.839 108.48C383.176 105.583 383.448 98.6261 387.413 100.716C388.759 95.4529 392.39 102.816 394.499 103.403C426.637 115.69 413.901 101.885 418.22 79.2101C415.18 80.8611 412.522 77.1296 416.067 76.7813C431.509 80.1119 424.761 63.0913 426.933 54.7504C439.124 37.5485 419.097 20.2416 426.341 3.81264C438.308 9.83928 429.066 -0.0285679 436.834 6.21976e-05Z" fill="#1E1C1A"/>
<path d="M16.4482 531.089C24.2308 530.097 22.1742 531.59 17.3691 535.589C16.3575 541.577 14.1053 538.452 13.1366 542.336C10.1829 542.909 14.6206 540.108 8.33629 541.596C9.69622 544.049 12.5449 549.613 6.90955 546.363C7.59668 551.188 3.21627 547.761 0.286452 548.692C-1.34547 536.915 4.90544 542.999 10.3213 534.74C12.941 533.427 20.1939 523.135 13.5899 524.886C13.6281 524.414 17.3405 521.918 15.155 521.932C19.9458 514.646 18.0467 527.682 16.4529 531.089H16.4482Z" fill="#1E1C1A"/>
<path d="M322.791 327.815C335.55 323.821 314.316 347.88 313.691 338.16C316.865 337.373 315.424 334.472 317.533 332.344C309.22 334.181 319.794 315.523 324.943 316.349C326.236 320.472 322.567 323.821 322.786 327.81L322.791 327.815Z" fill="#1E1C1A"/>
<path d="M17.9322 489.046C16.9826 481.091 22.7707 475.098 22.1694 466.666C27.2417 466.728 29.9998 458.841 27.9384 471.72C24.393 476.348 26.0918 490.864 17.9322 489.046Z" fill="#1E1C1A"/>
<path d="M155.643 405.933C151.21 409.091 146.791 403.685 149.654 399.457C153.715 396.446 159.465 402.449 155.643 405.933Z" fill="#1E1C1A"/>
<path d="M357.027 158.296C352.819 161.188 352.742 155.175 353.081 152.432C359.332 144.854 360.434 152.861 357.027 158.296Z" fill="#1E1C1A"/>
<path d="M38.2688 498.293C40.0773 500.87 37.9253 505.384 34.6328 504.768C32.3137 501.944 33.8073 494.485 38.2688 498.293Z" fill="#1E1C1A"/>
<path d="M148.041 408.552C149.158 411.487 145.555 411.143 145.756 413.706C140.116 412.131 140.244 403.466 148.041 408.552Z" fill="#1E1C1A"/>
<path d="M40.3015 578.329C40.5114 580.046 38.4787 580.648 37.7295 582.194C33.5734 593.25 32.9244 577.913 40.3015 578.329Z" fill="#1E1C1A"/>
<path d="M39.6002 574.988C47.3351 576.382 41.9622 581.253 38.9321 576.11L39.6002 574.988Z" fill="#1E1C1A"/>
<path fill-rule="evenodd" clip-rule="evenodd" d="M68.4786 599.119C56.7927 579.011 75.9606 590.472 66.5508 610.776L66.5603 610.8C68.6566 611.652 69.897 609.594 70.785 608.121C70.9905 607.78 71.1771 607.47 71.3511 607.235C75.9749 605.88 88.9443 599.181 80.8802 594.562C82.2733 591.726 83.315 592.824 84.6976 594.281C85.9669 595.619 87.5236 597.259 89.9034 596.437C93.0971 590.505 93.9377 583.629 94.7814 576.73C95.8486 568.001 96.9207 559.232 102.768 552.285C102.151 547.758 105.536 544.401 108.75 541.214C111.431 538.556 113.993 536.015 114.015 533.012C107.875 533.65 109.29 532.287 110.904 530.731C112.514 529.179 114.323 527.436 109.033 527.295C108.202 526.018 108.273 524.584 108.334 523.376C108.436 521.326 108.506 519.926 104.071 521.049C103.835 521.006 103.49 520.947 103.075 520.875C99.7539 520.306 91.8881 518.959 98.5927 518.501C109.868 515.6 97.0991 495.063 91.1727 508.719C82.0636 509.134 77.769 499.71 79.7016 492.934C84.7796 498.393 90.1467 496.251 95.8371 493.98C98.4185 492.95 101.067 491.893 103.784 491.508C102.685 495.234 103.878 494.972 105.529 494.608C106.1 494.483 106.725 494.345 107.33 494.356C108.064 495.548 109.39 496.142 110.581 496.676C112.608 497.584 114.243 498.316 111.901 501.523C114.279 499.877 116.166 501.031 117.687 501.961C119.29 502.941 120.485 503.672 121.416 500.602C113.967 498.727 119.545 498.088 122.904 498.484C127.228 494.76 125.843 494.529 123.655 494.164C121.455 493.797 118.442 493.295 119.602 488.969C119.674 488.668 119.911 488.343 120.178 487.975C120.875 487.018 121.781 485.772 120.533 483.921C122.896 481.834 122.996 483.005 123.126 484.536C123.262 486.127 123.431 488.106 126.211 487.213C123.124 491.541 133.932 492.567 129.556 485.782C131.27 484.867 131.827 485.476 132.436 486.141C132.711 486.441 132.996 486.753 133.402 486.941C138.734 488.025 140.468 488.232 140.478 488.498C140.493 488.952 135.475 489.577 134.753 495.034C133.229 496.414 132.895 498.15 132.566 499.857C132.034 502.625 131.516 505.316 125.968 506.29C125.458 508.446 120.939 511.098 117.031 513.391C111.874 516.417 107.781 518.819 115.365 518.635C116.396 518.029 117.369 517.279 118.251 516.6C121.176 514.346 123.079 512.88 122.628 520.138C131.298 522.39 123.949 525.382 122.632 522.982C120.795 524.31 121.46 524.538 122.59 524.924C123.876 525.363 125.762 526.007 125.257 528.708C123.577 528.846 122.346 530.063 122.399 531.79C122.867 532.699 123.703 532.34 124.533 531.983C125.394 531.613 126.249 531.246 126.679 532.301C124.057 537.067 125.947 536.567 128.195 535.973C130.804 535.283 133.895 534.465 130.978 541.601C133.668 542.048 135.687 542.176 137.565 542.295C140.117 542.457 142.408 542.602 145.77 543.509C144.074 539.549 143.63 538.789 143.709 538.73C143.833 538.637 145.229 540.242 145.15 534.09C149.488 529.49 152.837 525.177 153.019 518.783C153.706 518.389 154.401 517.98 155.103 517.567C162.286 513.341 170.135 508.723 176.581 516.287C181.198 525.279 182.64 522.203 185.327 516.474C187.524 511.787 190.555 505.324 196.837 502.239C203.726 500.172 202.951 499.047 200.439 495.404C199.618 494.211 198.61 492.75 197.624 490.897C197.082 485.964 200.921 485.319 205.057 484.624C206.302 484.414 207.574 484.2 208.761 483.863C206.569 477.404 206.975 476.444 208.706 472.353C209.134 471.343 209.642 470.141 210.212 468.618C213.85 468.759 215.989 467.428 217.357 466.578C219.326 465.353 219.697 465.122 220.643 471.705C218.767 475.624 215.706 476.783 213.383 477.663C210.286 478.835 208.5 479.512 212.579 485.567C207.609 495.798 210.177 497.32 213.437 499.252C215.623 500.548 218.12 502.028 218.863 506.443C235.704 521.202 237.722 516.079 240.781 508.311C242.454 504.065 244.438 499.028 249.326 496.017C255.684 482.005 261.511 482.911 265.808 483.579C269.253 484.114 271.714 484.496 272.673 476.911C272.468 474.028 269.336 471.995 266.29 470.017C261.619 466.985 257.151 464.084 263.75 458.449C265.955 446.033 268.756 457.81 268.637 463.822C273.379 466.233 274.503 466.582 274.477 466.78C274.443 467.037 272.485 467.042 273.952 470.937C288.325 467.105 302.162 466.738 316.549 469.491C314.955 464.118 320.653 457.476 325.219 454.546C325.234 450.586 329.108 446.515 332.792 450.209C331.107 454.117 328.736 464.91 331.866 467.368C336.371 476.315 350.509 457.218 344.301 452.47C344.024 447.031 347.15 442.626 353.095 441.858C357.502 441.24 357.974 443.499 358.404 445.551C358.829 447.583 359.211 449.412 363.331 448.042C367.678 435.378 366.284 450.547 363.307 454.966C366.012 459.957 370.35 461.083 372.698 454.785C385.483 449.266 386.819 442.962 387.969 437.534C389.114 432.135 390.074 427.602 401.938 425.572C402.468 423.282 400.257 420.093 397.97 416.792C395.763 413.607 393.484 410.319 393.526 407.636C393.063 393.349 397.787 382.131 406.171 372.311C409.491 363.089 407.916 353.301 406.474 344.343C404.813 334.028 403.33 324.813 409.702 318.83C412.412 319.636 412.738 318.373 413.064 317.115C413.464 315.567 413.862 314.027 418.701 316.368C416.997 320.236 418.267 320.017 419.441 319.814C420.324 319.661 421.152 319.518 420.615 321.135C421.295 321.479 422.081 320.993 422.638 320.648C422.898 320.487 423.108 320.357 423.234 320.357C427.244 322.445 425.629 318.353 424.38 315.189C423.988 314.196 423.631 313.294 423.497 312.703C424.484 309.262 424.195 307.501 423.734 304.689C423.649 304.172 423.558 303.618 423.468 303.012C425.718 302.522 425.52 301.422 425.305 300.229C425.04 298.757 424.75 297.145 428.999 296.365C429.462 295.759 429.204 294.898 428.975 294.134C428.666 293.105 428.41 292.252 430.039 292.433C430.313 289.761 431.05 289.595 432.175 289.34C433.324 289.08 434.879 288.729 436.757 285.519C436.595 282.942 437.115 281.219 438.303 278.919C437.367 277.94 436.951 277.61 437.007 277.423C437.083 277.173 437.998 277.178 439.64 276.238C440.125 274.035 439.207 273.568 438.662 273.291C438.093 273.002 437.93 272.919 440.188 271.289C441.634 262.424 440.126 251.644 435.407 243.59C435.044 236.556 430.707 226.646 422.003 221.196C417.723 209.577 420.037 195.758 422.042 184.192C420.364 184.659 419.05 185.293 417.931 185.832C414.765 187.359 413.159 188.133 409.306 182.259C399.777 175.994 398.221 187.083 397.601 195.3C395.199 201.642 400.225 199.733 405.262 197.818C411.754 195.352 418.264 192.878 408.919 208.05C405.531 203.145 397.443 199.728 400.13 208.699C395.04 211.527 395.003 204.119 394.977 198.655C394.968 196.835 394.96 195.232 394.767 194.294C394.371 194.105 393.995 193.909 393.638 193.723C391.507 192.614 389.994 191.826 388.401 194.69C385.419 190.195 380.867 191.483 382.441 196.608C378.724 195.334 379.602 200.33 381.721 200.42C382.932 210.964 380.268 211.633 376.865 212.488C374.425 213.101 371.605 213.81 369.563 218.324C369.129 218.843 368.625 219.198 368.155 219.529C367.051 220.307 366.127 220.957 366.709 223.305C369.276 223.124 369.576 225.507 369.889 227.998C370.168 230.216 370.458 232.519 372.368 233.173C371.963 239.076 370.106 251.272 361.441 245.747C361.682 254.981 364.728 254.307 367.704 253.649C369.925 253.158 372.106 252.675 373.051 256.33C375.122 270.765 368.803 283.467 362.446 296.242C359.711 301.741 356.968 307.253 354.885 312.922C355.581 324.704 348.033 331.785 337.544 334.238C334.812 337.139 332.483 341.301 330.085 345.585C325.055 354.573 319.723 364.099 309.735 363.66C307.553 366.758 303.076 368.467 298.496 370.215C292.398 372.542 286.119 374.939 284.841 380.776C276.049 383.213 276.487 377.177 276.943 370.889C277.12 368.447 277.3 365.968 276.944 363.932C285.331 359.813 284.783 358.607 284.345 357.642C284.014 356.914 283.746 356.323 287.418 354.722C287.886 344.32 276.596 351.864 272.311 354.894C265.005 354.541 263.197 361.575 263.187 367.878C271.051 378.514 261.587 387.461 252.476 396.074C243.824 404.253 235.49 412.131 242.621 420.868C239.878 421.054 238.207 424.098 239.286 426.598C234.115 425.765 234.423 426.629 234.75 427.55C235.037 428.358 235.34 429.21 231.976 428.998C228.297 431.628 226.507 431.661 224.704 427.052C220.31 429.983 220.036 428.22 219.676 425.904C219.196 422.813 218.563 418.738 207.793 423.511C203.168 424.251 198.359 425.447 193.42 426.675C182.938 429.281 171.875 432.032 160.763 430.874C154.56 434.389 154.577 433.331 154.605 431.634C154.646 429.13 154.709 425.233 134.819 432.601C131.529 435.919 128.22 439.616 124.76 443.481C120.592 448.137 116.205 453.038 111.366 457.819C108.729 460.002 105.882 461.563 103.085 463.096C98.3503 465.693 93.7611 468.209 90.581 473.528C89.3456 476.235 88.9089 475.851 88.0388 475.086C87.0067 474.179 85.3647 472.737 81.0567 475.279C75.7745 470.297 70.7642 479.965 74.6484 484.116C72.0221 487.963 72.7869 490.07 73.2959 491.473C74.0391 493.522 74.2371 494.067 62.5378 496.327C58.8494 503.346 55.5146 504.678 50.3276 506.749C49.7034 506.999 49.0524 507.259 48.3707 507.541C47.3838 512.602 46.0168 511.711 44.3329 510.613C42.5484 509.45 40.4082 508.054 37.9875 513.267C37.9723 513.63 37.9654 513.978 37.9589 514.302C37.9184 516.324 37.8973 517.38 36.0215 515.118C35.045 514.46 34.2902 515.022 33.583 515.548C33.1775 515.85 32.7877 516.14 32.3807 516.182C31.9966 516.221 31.5669 516.121 31.1137 516.016C30.2383 515.813 29.275 515.589 28.3821 516.306C28.3011 514.733 29.4045 514.372 30.4618 514.027C31.5853 513.659 32.6567 513.309 32.1994 511.539C25.2614 510.47 24.7747 517.437 25.4141 522.433C22.3173 523.258 23.3909 528.712 26.6356 526.336C26.7541 526.252 26.8528 526.026 26.9532 525.795C27.2129 525.199 27.4836 524.578 28.1339 526.336C36.6848 523.149 34.3944 527.939 30.2907 532.525C32.8818 530.942 33.3993 532.981 34.016 535.411C34.6372 537.859 35.3591 540.704 38.4026 540.642C33.6452 554.026 40.1681 552.652 46.1614 542.197C49.5084 541.027 49.5877 542.409 49.716 544.646C49.777 545.71 49.8491 546.966 50.2889 548.233C45.8655 548.734 44.8158 551.645 44.1811 555.725C42.7377 562.708 44.7969 563.95 47.0531 565.31C49.7273 566.922 52.6783 568.701 50.4034 580.404C54.3353 582.065 58.7968 588.33 53.1853 591.465C48.9003 588.411 45.5506 594.452 50.8329 596.198C51.0066 600.092 53.3621 600.207 55.8035 600.326C58.057 600.436 60.3837 600.55 61.1349 603.642C64.1697 603.752 69.075 603.275 68.4786 599.119ZM374.493 428.201C374.595 428.297 374.698 428.399 374.802 428.507C374.802 428.507 374.802 428.507 374.802 428.507C373.738 429.188 372.822 429.89 372.028 430.597C369.05 433.249 367.784 435.982 366.877 437.939C366.709 438.301 366.553 438.637 366.401 438.94C365.773 440.209 365.214 440.921 364.091 440.684C363.288 440.52 362.201 439.869 360.598 438.586C360.565 438.559 360.53 438.532 360.496 438.504C360.403 438.012 360.456 437.613 360.613 437.284C360.66 437.185 360.717 437.092 360.782 437.005C361.366 436.227 362.623 435.913 363.769 435.626C364.741 435.383 365.633 435.16 365.965 434.691C366.544 432.866 367.481 430.004 368.909 428.257M249.227 438.581C249.381 438.588 249.551 438.581 249.741 438.556C249.749 438.589 249.756 438.622 249.762 438.656C250.307 441.619 242.104 447.617 240.24 445.909C240.238 445.898 240.237 445.885 240.239 445.871C240.25 445.729 240.464 445.445 240.8 445.075C241.229 444.602 241.856 443.988 242.51 443.347L242.51 443.347C243.817 442.066 245.235 440.677 245.408 440.083C245.515 439.712 245.344 439.01 245.162 438.265C244.844 436.957 244.492 435.517 245.554 435.493C245.873 435.485 246.32 435.606 246.935 435.898C246.94 435.901 246.945 435.903 246.95 435.906C247.316 436.089 247.468 436.534 247.632 437.011C247.879 437.733 248.151 438.527 249.227 438.581ZM280.055 463.345C287.17 458.244 279.783 467.745 275.069 465.721C275.069 465.722 275.069 465.722 275.069 465.722C279.783 467.745 287.17 458.245 280.055 463.35C279.379 463.372 278.649 463.242 277.958 463.119L277.958 463.119C277.12 462.969 276.338 462.83 275.777 462.983C276.338 462.829 277.12 462.967 277.959 463.116C278.649 463.238 279.378 463.366 280.055 463.345ZM275.052 465.641C274.693 463.864 275.051 463.18 275.777 462.983ZM181.905 468.08C187.315 464.211 195.548 462.721 201.451 464.423C205.851 466.476 206.298 468.731 205.139 471.075C204.352 472.676 202.816 474.319 201.276 475.966C199.729 477.62 198.178 479.28 197.376 480.906C197.307 481.049 197.243 481.192 197.185 481.334C197.184 481.335 197.183 481.337 197.181 481.338C197.181 481.338 197.181 481.339 197.18 481.339C197.009 481.478 196.84 481.606 196.674 481.726C195.495 482.571 194.423 482.948 193.43 482.994C190.956 483.113 188.973 481.182 187.047 479.306C184.649 476.971 182.337 474.72 179.272 476.607C178.841 476.874 178.395 477.223 177.932 477.665C177.931 477.664 177.93 477.664 177.929 477.663C177.928 477.664 177.927 477.664 177.927 477.665C177.899 477.644 177.869 477.622 177.837 477.6C177.56 477.412 177.174 477.185 176.762 476.941C176.144 476.577 175.465 476.177 174.993 475.817C174.394 475.371 174.117 474.989 174.699 474.817C175.038 474.709 175.684 474.679 176.754 474.759C177.564 472.091 179.443 469.839 181.905 468.08ZM167.699 479.022C167.5 478.069 167.256 477.308 166.972 476.71C166.989 476.663 167.006 476.617 167.022 476.571C167.351 475.66 167.61 474.941 165.624 475.099C164.437 474.426 162.938 474.948 161.297 475.749C158.56 475.925 158.111 476.644 157.718 477.275C157.644 477.392 157.573 477.507 157.488 477.614C155.522 478.41 153.533 478.706 151.759 477.221C151.044 477.291 150.717 477.476 150.612 477.752C150.431 477.72 150.246 477.686 150.055 477.651C150.265 477.842 150.443 478.023 150.593 478.195C150.64 478.449 150.76 478.744 150.894 479.072C151.052 479.459 151.228 479.893 151.324 480.358C151.297 480.654 151.241 480.971 151.178 481.328C151.121 481.653 151.058 482.011 151.006 482.416C149.629 482.137 148.927 482.087 148.597 482.22C148.211 482.366 148.314 482.751 148.463 483.309C148.611 483.864 148.805 484.59 148.61 485.424C148.085 486.529 147.441 487.318 146.878 488.006C145.602 489.568 144.748 490.613 146.682 493.66C147.39 494.633 148.3 494.683 149.337 494.345C150.01 494.128 150.736 493.747 151.496 493.349C152.323 492.915 153.191 492.46 154.072 492.173C155 491.873 155.942 491.761 156.869 492.056C157.693 492.94 158.696 493.09 159.68 492.769C162.996 491.704 166.115 485.282 161.488 483.544C161.409 482.305 161.659 481.835 162.117 481.692C162.437 481.597 162.855 481.657 163.331 481.724C163.773 481.787 164.264 481.857 164.773 481.818C164.959 481.805 165.146 481.778 165.334 481.731C165.711 481.635 171.9 478.433 172.182 478.171C173.343 476.043 172.608 475.433 171.423 475.673C170.007 475.954 167.937 477.455 167.699 479.022ZM123.329 481.458C122.671 480.814 124.932 476.901 125.71 477.646C126.006 478.245 126.156 478.88 126.153 479.46C126.147 480.868 125.242 481.955 123.329 481.458ZM53.1573 530.982C52.682 529.508 52.2405 528.14 52.7505 527.446C53.1629 526.872 54.2115 526.752 56.4014 527.401L56.3967 527.405L56.3966 527.405C56.7509 527.688 57.0408 527.982 57.2791 528.286C58.2444 529.515 58.3667 530.922 58.5002 532.458C58.548 533.008 58.5972 533.575 58.6871 534.155C58.7194 534.363 58.757 534.572 58.8016 534.782C58.9043 535.304 59.9435 536.188 61.1088 537.18C62.4525 538.323 63.9638 539.609 64.4004 540.646C64.7131 541.385 64.4807 541.998 63.2536 542.345C61.6433 543.41 60.6135 544.283 59.9197 545.022C59.086 545.917 58.7391 546.62 58.4396 547.227C58.3931 547.322 58.3477 547.413 58.3018 547.504C57.7493 548.619 57.1438 549.418 53.1949 550.653C53.1964 550.651 53.198 550.649 53.1996 550.647C53.198 550.647 53.1964 550.648 53.1948 550.648C55.862 547.356 64.4596 534.355 53.6742 535.379C53.6735 535.379 53.6727 535.379 53.672 535.379C53.7737 535.171 53.8374 534.942 53.8702 534.697C53.8855 534.581 53.894 534.462 53.8964 534.34M42.6846 532.918C42.7902 533.577 42.7537 534.338 42.7186 535.068C42.7058 535.339 42.693 535.605 42.6876 535.86C42.6521 535.869 42.6172 535.876 42.5829 535.884C41.7921 536.05 41.332 535.959 41.0686 535.7C40.6829 535.323 40.7171 534.588 40.7551 533.771C40.7791 533.254 40.8049 532.704 40.7268 532.191C40.6658 531.792 40.5422 531.415 40.3065 531.094C41.9376 531.005 42.5085 531.819 42.6846 532.918ZM62.7287 549.694L62.7241 549.689C61.1422 549.999 60.3836 552.437 59.5947 554.973C58.8653 557.317 58.1101 559.744 56.6545 560.65C56.0237 560.809 55.4738 560.887 55.0098 560.953C53.7255 561.135 53.0982 561.224 53.2302 562.687C53.278 563.227 53.4299 563.954 53.6911 564.944C57.6039 564.658 62.3756 553.435 62.7287 549.698V549.695C62.7287 549.695 62.7286 549.694 62.7287 549.694ZM68.6255 584.717C67.868 584.091 67.0368 583.403 66.2198 583.54C66.1725 583.548 66.1253 583.559 66.0781 583.573C66.0782 583.573 66.0783 583.573 66.0784 583.573C66.197 583.329 66.3463 583.127 66.5183 582.962C68.0553 581.49 71.4032 583.033 70.8453 585.243C70.8452 585.243 70.8451 585.243 70.845 585.243C70.6511 585.551 70.4256 585.665 70.1751 585.651C69.7254 585.627 69.1964 585.189 68.6255 584.717Z" fill="#1E1C1A"/>
<path d="M183.963 475.68C183.963 472.207 179.515 476.477 181.138 470.551C189.732 467.74 192.084 475.385 183.963 475.68Z" fill="#1E1C1A"/>
<path d="M191.092 467.621C190.977 464.944 192.213 465.884 193.172 465.684C196.808 462.348 193.883 468.8 191.092 467.621Z" fill="#1E1C1A"/>
<path d="M186.29 432.839L194.677 447.032L202.419 434.774L205 427.032L202.419 420.581L198.548 418H191.452L186.29 422.516L185 427.032L186.29 432.839Z" fill="#D6DECB" stroke="black" stroke-linecap="round"/>
<path d="M191.038 431.979C190.93 431.928 190.834 431.882 190.756 431.844L189.022 427.603L190.005 424.478L194.748 422.033L198.383 423.162L200.307 427.663L198.717 431.061C198.616 431.129 198.473 431.225 198.299 431.34C197.941 431.577 197.455 431.893 196.942 432.208C196.427 432.524 195.897 432.832 195.447 433.058C195.222 433.172 195.029 433.259 194.876 433.316C194.854 433.324 194.833 433.331 194.815 433.337H194.719C194.561 433.337 194.234 433.269 193.755 433.11C193.302 432.961 192.791 432.758 192.304 432.55C191.819 432.343 191.368 432.135 191.038 431.979Z" stroke="#1E1C1A" stroke-width="1.5"/>
<path d="M382.29 236.839L390.677 251.032L398.419 238.774L401 231.032L398.419 224.581L394.548 222H387.452L382.29 226.516L381 231.032L382.29 236.839Z" fill="#D6DECB" stroke="black" stroke-linecap="round"/>
<path d="M387.038 235.979C386.93 235.928 386.834 235.882 386.756 235.844L385.022 231.603L386.005 228.478L390.748 226.033L394.383 227.162L396.307 231.663L394.717 235.061C394.616 235.129 394.473 235.225 394.299 235.34C393.941 235.577 393.455 235.893 392.942 236.208C392.427 236.524 391.897 236.832 391.447 237.058C391.222 237.172 391.029 237.259 390.876 237.316C390.854 237.324 390.833 237.331 390.815 237.337H390.719C390.561 237.337 390.234 237.269 389.755 237.11C389.302 236.961 388.791 236.758 388.304 236.55C387.819 236.343 387.368 236.135 387.038 235.979Z" stroke="#1E1C1A" stroke-width="1.5"/>
<path d="M440.29 99.8387L448.677 114.032L456.419 101.774L459 94.0323L456.419 87.5806L452.548 85H445.452L440.29 89.5161L439 94.0323L440.29 99.8387Z" fill="#D6DECB" stroke="black" stroke-linecap="round"/>
<path d="M445.038 98.9788C444.93 98.9275 444.834 98.8819 444.756 98.8438L443.022 94.6027L444.005 91.4784L448.748 89.0329L452.383 90.1624L454.307 94.6633L452.717 98.0606C452.616 98.129 452.473 98.2252 452.299 98.3399C451.941 98.5774 451.455 98.893 450.942 99.2076C450.427 99.5237 449.897 99.8318 449.447 100.058C449.222 100.172 449.029 100.259 448.876 100.316C448.854 100.324 448.833 100.331 448.815 100.337H448.719C448.561 100.337 448.234 100.269 447.755 100.11C447.302 99.9608 446.791 99.7578 446.304 99.5499C445.819 99.3428 445.368 99.1351 445.038 98.9788Z" stroke="#1E1C1A" stroke-width="1.5"/>
<path d="M53.2903 505.839L61.6774 520.032L69.4194 507.774L72 500.032L69.4194 493.581L65.5484 491H58.4516L53.2903 495.516L52 500.032L53.2903 505.839Z" fill="#D6DECB" stroke="black" stroke-linecap="round"/>
<path d="M58.038 504.979C57.9296 504.928 57.8344 504.882 57.7556 504.844L56.0223 500.603L57.0052 497.478L61.748 495.033L65.3835 496.162L67.3072 500.663L65.717 504.061C65.6158 504.129 65.4727 504.225 65.2994 504.34C64.9406 504.577 64.4545 504.893 63.942 505.208C63.427 505.524 62.8968 505.832 62.4472 506.058C62.2218 506.172 62.0291 506.259 61.8764 506.316C61.8539 506.324 61.8334 506.331 61.8148 506.337H61.7186C61.5611 506.337 61.2336 506.269 60.7547 506.11C60.3021 505.961 59.7911 505.758 59.3043 505.55C58.8194 505.343 58.3684 505.135 58.038 504.979Z" stroke="#1E1C1A" stroke-width="1.5"/>
<path d="M93.2903 466.839L101.677 481.032L109.419 468.774L112 461.032L109.419 454.581L105.548 452H98.4516L93.2903 456.516L92 461.032L93.2903 466.839Z" fill="#D6DECB" stroke="black" stroke-linecap="round"/>
<path d="M98.038 465.979C97.9296 465.928 97.8344 465.882 97.7556 465.844L96.0223 461.603L97.0052 458.478L101.748 456.033L105.383 457.162L107.307 461.663L105.717 465.061C105.616 465.129 105.473 465.225 105.299 465.34C104.941 465.577 104.455 465.893 103.942 466.208C103.427 466.524 102.897 466.832 102.447 467.058C102.222 467.172 102.029 467.259 101.876 467.316C101.854 467.324 101.833 467.331 101.815 467.337H101.719C101.561 467.337 101.234 467.269 100.755 467.11C100.302 466.961 99.7911 466.758 99.3043 466.55C98.8194 466.343 98.3684 466.135 98.038 465.979Z" stroke="#1E1C1A" stroke-width="1.5"/>
</svg>
