<svg width="378" height="54" viewBox="0 0 378 54" fill="none" xmlns="http://www.w3.org/2000/svg">
  <path d="M167.836 19.673C170.398 18.6595 171.524 17.2801 171.524 14.6057V6.89227C171.524 4.69647 170.736 3.06369 168.427 3.06369H167.977C166.035 3.06369 164.289 4.47125 163.107 6.5826L162.347 6.24479L164.036 0.333008H165.021L165.443 0.755277H179.237L179.688 0.333008H180.673L182.362 6.24479L181.602 6.5826C180.392 4.47125 178.618 3.06369 176.704 3.06369H176.253C173.945 3.06369 173.157 4.69647 173.157 6.89227V14.6057C173.157 17.2801 174.227 18.7158 176.985 19.673V20.4612H167.836V19.673Z" fill="#D6DECB"/>
  <path d="M153.362 20.8833C150.998 20.8833 148.52 20.1514 146.662 18.9409L145.959 20.461H145.198L143.284 13.5358L143.988 13.2825C146.24 16.6325 149.872 18.0682 153.222 18.0682C156.628 18.0682 159.33 16.6325 159.33 14.6619C159.33 9.22866 144.607 12.3816 144.607 5.76605C144.607 2.64125 147.591 0.304688 152.096 0.304688C154.263 0.304688 155.84 0.839563 157.135 1.6841L157.838 0.332839H158.599L160.654 6.46983L159.95 6.75134C157.951 4.27403 155.502 3.00722 152.124 3.00722C148.914 3.00722 146.634 4.30218 146.634 5.99126C146.634 10.3266 161.583 7.34252 161.583 15.056C161.583 18.6875 157.67 20.8833 153.362 20.8833Z" fill="#D6DECB"/>
  <path d="M121.939 19.6726C124.36 18.6873 125.515 17.5612 125.515 14.6616V6.52591C125.515 3.59817 124.36 2.52842 121.939 1.54312V0.754883H139.224L140.097 5.48431L139.393 5.79397C138.042 4.02044 135.677 2.89439 133.566 2.89439H131.567C128.921 2.89439 127.176 4.72422 127.176 7.03263V9.20028H130.892C132.834 9.20028 134.242 8.72171 135.086 6.77927H135.762V13.5074H135.086C134.298 11.4805 132.834 11.002 130.892 11.002H127.176V13.62C127.176 16.9982 128.471 18.3776 131.68 18.3776H134.016C136.719 18.3776 139.337 16.9982 140.942 15.0839L141.589 15.4499L139.365 20.4608H121.939V19.6726Z" fill="#D6DECB"/>
  <path d="M111.294 19.6726C113.771 18.7154 115.038 17.4205 115.038 14.7179V6.46961C115.038 3.76708 113.771 2.47211 111.294 1.54312V0.754883H120.415V1.54312C117.938 2.55657 116.671 3.76708 116.671 6.46961V14.7179C116.671 17.4205 117.938 18.6591 120.415 19.6726V20.4608H111.294V19.6726Z" fill="#D6DECB"/>
  <path d="M90.5586 19.6444C93.0641 18.631 94.1057 17.4768 94.1057 14.8306V6.44145C94.1057 3.79523 93.0641 2.61287 90.5586 1.59942V0.754883H102.382C106.042 0.754883 108.998 2.50027 108.998 6.15994C108.998 10.0167 105.591 11.4524 102.072 11.5087L102.495 12.3251C103.959 15.0839 106.07 17.1953 108.041 17.1953C108.773 17.1953 109.138 17.0827 109.702 16.8293L110.293 17.5049L107.731 20.8831C105.732 20.7423 103.48 17.7864 102.185 15.3091L100.215 11.5087H95.7666V14.8024C95.7666 17.5612 97.0053 18.631 99.4826 19.6444V20.4608H90.5586V19.6444ZM95.7666 9.73516H102.016C104.578 9.73516 107.252 8.77801 107.252 6.27255C107.252 4.04859 105.057 2.80993 102.382 2.80993H99.8485C97.3431 2.80993 95.7666 3.48556 95.7666 6.3007V9.73516Z" fill="#D6DECB"/>
  <path d="M71.0879 19.6726C73.5652 18.6591 74.6631 17.5331 74.6631 14.8306V6.357C74.6631 3.62632 73.5652 2.55657 71.0879 1.54312V0.754883H82.6862C86.3459 0.754883 89.1329 2.44396 89.1329 6.15994C89.1329 10.1574 85.7266 11.5368 82.2077 11.5368H76.324V14.8024C76.324 17.5612 77.619 18.631 80.3215 19.6726V20.4608H71.0879V19.6726ZM76.324 9.73516H82.2921C84.8539 9.73516 87.3875 8.77801 87.3875 6.27255C87.3875 4.04859 85.3043 2.89439 82.6581 2.89439H80.3778C77.8724 2.89439 76.324 3.40111 76.324 6.21624V9.73516Z" fill="#D6DECB"/>
  <path d="M40.8008 19.6726C42.9403 18.828 44.4605 17.7864 45.1642 15.844L48.4298 6.63851C48.6832 5.96288 48.9084 5.06204 48.9084 4.41456C48.9084 3.00699 47.8386 2.04985 46.3747 1.54312V0.754883H57.8605V1.54312C56.3966 1.93724 55.2143 3.00699 55.2143 4.35825C55.2143 5.00574 55.4395 5.76582 55.7491 6.58221L59.2399 15.844C60.0281 17.9553 61.2386 18.828 63.4345 19.6726V20.4608H54.3697V19.6726C55.8336 19.194 57.2412 18.265 57.2412 16.8011C57.2412 15.8158 56.8752 14.549 56.4529 13.4511H47.7542C47.3037 14.6616 46.9659 15.7877 46.9659 16.8011C46.9659 18.265 48.4016 19.194 49.8374 19.6726V20.4608H40.8008V19.6726ZM48.4579 11.5931H55.7491L52.6806 3.31665H51.5546L48.4579 11.5931Z" fill="#D6DECB"/>
  <path d="M19.8799 19.6726C22.3009 18.6873 23.4551 17.5612 23.4551 14.6616V6.52591C23.4551 3.59817 22.3009 2.52842 19.8799 1.54312V0.754883H37.1648L38.0375 5.48431L37.3337 5.79397C35.9825 4.02044 33.6177 2.89439 31.5064 2.89439H29.5076C26.8614 2.89439 25.116 4.72422 25.116 7.03263V9.20028H28.832C30.7745 9.20028 32.182 8.72171 33.0266 6.77927H33.7022V13.5074H33.0266C32.2383 11.4805 30.7745 11.002 28.832 11.002H25.116V13.62C25.116 16.9982 26.411 18.3776 29.6202 18.3776H31.9568C34.6593 18.3776 37.2774 16.9982 38.882 15.0839L39.5295 15.4499L37.3056 20.4608H19.8799V19.6726Z" fill="#D6DECB"/>
  <path d="M10.0782 20.8833C7.71347 20.8833 5.23615 20.1514 3.37816 18.9409L2.67438 20.461H1.91429L0 13.5358L0.703783 13.2825C2.95589 16.6325 6.58741 18.0682 9.93742 18.0682C13.3437 18.0682 16.0463 16.6325 16.0463 14.6619C16.0463 9.22866 1.32311 12.3816 1.32311 5.76605C1.32311 2.64125 4.30715 0.304688 8.81137 0.304688C10.979 0.304688 12.5555 0.839563 13.8505 1.6841L14.5542 0.332839H15.3143L17.3694 6.46983L16.6656 6.75134C14.6668 4.27403 12.2177 3.00722 8.83952 3.00722C5.63027 3.00722 3.35001 4.30218 3.35001 5.99126C3.35001 10.3266 18.2984 7.34252 18.2984 15.056C18.2984 18.6875 14.3853 20.8833 10.0782 20.8833Z" fill="#D6DECB"/>
  <path fill-rule="evenodd" clip-rule="evenodd" d="M360.812 17.6589L362.596 13.8998L363.502 14.7187C364.683 15.7866 366.801 16.6175 368.976 16.6175C370.471 16.6175 371.403 16.3241 371.934 15.9581C372.425 15.6199 372.624 15.1906 372.624 14.6814C372.624 14.3268 372.521 14.0853 372.355 13.8849C372.17 13.6639 371.87 13.4493 371.413 13.2427C370.67 12.9065 369.735 12.6793 368.658 12.4174C368.358 12.3444 368.047 12.2688 367.726 12.1874C366.331 11.8339 364.778 11.3737 363.574 10.4922C362.306 9.56333 361.458 8.19084 361.458 6.17513C361.458 4.50333 362.116 2.92256 363.498 1.77612C364.866 0.641681 366.858 0 369.424 0C371.717 0 374.149 0.610145 375.865 1.79332L376.468 2.2095L374.906 5.99758L373.991 5.41279C372.536 4.48221 370.889 4.0547 369.424 4.0547C367.968 4.0547 367.062 4.36277 366.545 4.73976C366.059 5.09369 365.855 5.54799 365.855 6.06979C365.855 6.42446 365.958 6.66663 366.125 6.86773C366.309 7.08948 366.61 7.30467 367.067 7.51172C367.815 7.85123 368.759 8.08027 369.847 8.34424C370.139 8.41498 370.441 8.48822 370.752 8.56677C372.145 8.91837 373.698 9.37396 374.901 10.2449C376.169 11.1633 377.021 12.5228 377.021 14.5234C377.021 16.1916 376.342 17.7654 374.945 18.9043C373.563 20.031 371.555 20.6722 368.976 20.6722C366.003 20.6722 362.99 19.6813 361.3 18.112L360.812 17.6589ZM373.686 4.19233C372.291 3.47966 370.792 3.14659 369.424 3.14659C366.29 3.14659 364.947 4.46335 364.947 6.06979C364.947 8.0929 367.2 8.63841 369.683 9.2393C372.726 9.97594 376.113 10.7958 376.113 14.5234C376.113 17.3412 373.848 19.7641 368.976 19.7641C366.158 19.7641 363.393 18.816 361.918 17.4466L362.893 15.3924C363.114 15.5921 363.36 15.7828 363.628 15.9623C365.019 16.8957 366.988 17.5256 368.976 17.5256C372.163 17.5256 373.532 16.2878 373.532 14.6814C373.532 12.6647 371.293 12.1215 368.82 11.5216C365.771 10.7819 362.366 9.95603 362.366 6.17513C362.366 3.33094 364.578 0.908108 369.424 0.908108C371.583 0.908108 373.822 1.48748 375.349 2.54088L374.48 4.64769C374.22 4.48154 373.955 4.32987 373.686 4.19233Z" fill="#D6DECB"/>
  <path fill-rule="evenodd" clip-rule="evenodd" d="M353.123 0.210938H357.572V20.4617H354.07L344.352 8.38398V20.4617H339.902V0.210938H343.405L353.123 12.2887V0.210938ZM354.031 14.866L342.97 1.11904H340.81V19.5536H343.444V5.8067L354.505 19.5536H356.664V1.11904H354.031V14.866Z" fill="#D6DECB"/>
  <path fill-rule="evenodd" clip-rule="evenodd" d="M326.488 20.6722C320.358 20.6722 315.757 16.2689 315.757 10.3361C315.757 4.4033 320.358 0 326.488 0C332.567 0 337.166 4.37849 337.166 10.3361C337.166 16.2937 332.567 20.6722 326.488 20.6722ZM326.488 16.5121C330.077 16.5121 332.717 13.9076 332.717 10.3361C332.717 6.76454 330.077 4.16004 326.488 4.16004C322.842 4.16004 320.207 6.76893 320.207 10.3361C320.207 13.9032 322.842 16.5121 326.488 16.5121ZM316.665 10.3361C316.665 15.7348 320.826 19.7641 326.488 19.7641C332.097 19.7641 336.258 15.7611 336.258 10.3361C336.258 4.91104 332.097 0.908108 326.488 0.908108C320.826 0.908108 316.665 4.93738 316.665 10.3361ZM333.625 10.3361C333.625 14.418 330.57 17.4202 326.488 17.4202C322.353 17.4202 319.298 14.418 319.298 10.3361C319.298 6.25414 322.353 3.25193 326.488 3.25193C330.57 3.25193 333.625 6.25414 333.625 10.3361Z" fill="#D6DECB"/>
  <path fill-rule="evenodd" clip-rule="evenodd" d="M308.578 20.4617V0.210938H313.028V20.4617H308.578ZM309.486 19.5536H312.12V1.11904H309.486V19.5536Z" fill="#D6DECB"/>
  <path fill-rule="evenodd" clip-rule="evenodd" d="M295.098 20.4617V4.31831H288.777V0.210938H305.842V4.31831H299.521V20.4617H295.098ZM298.613 3.4102H304.933V1.11904H289.685V3.4102H296.006V19.5536H298.613V3.4102Z" fill="#D6DECB"/>
  <path fill-rule="evenodd" clip-rule="evenodd" d="M286.627 3.82539L283.631 6.72909L282.999 6.06229C281.76 4.75475 280.267 4.16004 278.47 4.16004C274.791 4.16004 272.136 6.77544 272.136 10.3361C272.136 13.8967 274.791 16.5121 278.47 16.5121C280.258 16.5121 281.755 15.8971 282.999 14.5835L283.631 13.9167L286.627 16.8204L286.049 17.4705C284.163 19.592 281.423 20.6722 278.339 20.6722C272.286 20.6722 267.687 16.3201 267.687 10.3361C267.687 4.35051 272.287 0 278.365 0C281.418 0 284.16 1.05033 286.049 3.17532L286.627 3.82539ZM284.73 17.5111C283.085 18.9892 280.865 19.7641 278.339 19.7641C272.756 19.7641 268.595 15.7875 268.595 10.3361C268.595 4.88471 272.756 0.908108 278.365 0.908108C280.867 0.908108 283.085 1.66244 284.729 3.13522C284.783 3.18383 284.837 3.23321 284.89 3.28338C285.056 3.44079 285.217 3.60589 285.37 3.77863L283.658 5.4376C283.616 5.393 283.574 5.34926 283.531 5.30609C282.133 3.89656 280.438 3.25193 278.47 3.25193C274.309 3.25193 271.228 6.25414 271.228 10.3361C271.228 14.418 274.309 17.4202 278.47 17.4202C280.436 17.4202 282.13 16.7518 283.528 15.3428C283.572 15.2986 283.615 15.2537 283.658 15.2081L285.37 16.8672C285.214 17.0424 285.052 17.2099 284.883 17.3698C284.832 17.4176 284.781 17.4647 284.73 17.5111Z" fill="#D6DECB"/>
  <path fill-rule="evenodd" clip-rule="evenodd" d="M265.396 16.3544V20.4617H250.201V0.210938H265.027V4.31831H254.651V8.16414H263.895V12.2188H254.651V16.3544H265.396ZM253.743 17.2625V11.3107H262.986V9.07225H253.743V3.4102H264.119V1.11904H251.109V19.5536H264.488V17.2625H253.743Z" fill="#D6DECB"/>
  <path fill-rule="evenodd" clip-rule="evenodd" d="M233.143 20.4617V0.210938H237.592V16.3544H247.573V20.4617H233.143ZM236.684 17.2625V1.11904H234.051V19.5536H246.665V17.2625H236.684Z" fill="#D6DECB"/>
  <path fill-rule="evenodd" clip-rule="evenodd" d="M229.272 16.3544V20.4617H214.077V0.210938H228.903V4.31831H218.527V8.16414H227.771V12.2188H218.527V16.3544H229.272ZM217.619 17.2625V11.3107H226.862V9.07225H217.619V3.4102H227.995V1.11904H214.985V19.5536H228.363V17.2625H217.619Z" fill="#D6DECB"/>
  <path fill-rule="evenodd" clip-rule="evenodd" d="M193.521 17.6589L195.304 13.8998L196.21 14.7187C197.391 15.7866 199.509 16.6175 201.684 16.6175C203.179 16.6175 204.111 16.3241 204.642 15.9581C205.133 15.6199 205.332 15.1906 205.332 14.6814C205.332 14.3268 205.229 14.0853 205.063 13.8849C204.878 13.6639 204.578 13.4493 204.121 13.2427C203.378 12.9065 202.443 12.6793 201.366 12.4173C201.066 12.3444 200.755 12.2688 200.434 12.1874C199.039 11.8339 197.486 11.3737 196.282 10.4922C195.014 9.56333 194.166 8.19084 194.166 6.17513C194.166 4.50333 194.824 2.92256 196.206 1.77612C197.574 0.641681 199.566 0 202.132 0C204.425 0 206.857 0.610145 208.573 1.79332L209.176 2.2095L207.614 5.99758L206.699 5.41279C205.244 4.48221 203.597 4.0547 202.132 4.0547C200.676 4.0547 199.77 4.36277 199.253 4.73976C198.767 5.09369 198.563 5.54799 198.563 6.06979C198.563 6.42446 198.666 6.66663 198.833 6.86773C199.017 7.08948 199.318 7.30467 199.775 7.51172C200.523 7.85123 201.467 8.08027 202.555 8.34424C202.847 8.41497 203.149 8.48822 203.46 8.56677C204.853 8.91837 206.406 9.37396 207.609 10.2449C208.877 11.1633 209.729 12.5228 209.729 14.5234C209.729 16.1916 209.05 17.7654 207.653 18.9043C206.271 20.031 204.263 20.6722 201.684 20.6722C198.711 20.6722 195.698 19.6813 194.008 18.112L193.521 17.6589ZM206.394 4.19233C204.999 3.47966 203.501 3.14659 202.132 3.14659C198.998 3.14659 197.655 4.46335 197.655 6.06979C197.655 8.0929 199.908 8.63841 202.391 9.2393C205.434 9.97594 208.821 10.7958 208.821 14.5234C208.821 17.3412 206.556 19.7641 201.684 19.7641C198.866 19.7641 196.101 18.816 194.626 17.4466L195.601 15.3924C195.822 15.5921 196.068 15.7828 196.336 15.9623C197.727 16.8957 199.696 17.5256 201.684 17.5256C204.871 17.5256 206.24 16.2878 206.24 14.6814C206.24 12.6647 204.001 12.1215 201.528 11.5216C198.479 10.7819 195.074 9.95603 195.074 6.17513C195.074 3.33094 197.286 0.908108 202.132 0.908108C204.291 0.908108 206.53 1.48748 208.057 2.54088L207.188 4.64769C206.928 4.48154 206.663 4.32987 206.394 4.19233Z" fill="#D6DECB"/>
  <path d="M189.216 42.5075L187.788 44.0912L185.4 44.2989L184.361 42.9229L184.387 40.794L185.711 39.5478L187.814 39.418L188.931 40.7161L189.216 42.5075Z" fill="#D6DECB"/>
  <path d="M173.431 43.8573L170.913 46.116L168.031 44.6621L165.695 43.4419L163.124 41.5467L163.021 45.9862L163.15 53.074L159.827 53.6971L160.32 47.3363L160.424 42.1438L160.45 37.0292L160.294 30.3828L163.384 31.1357L163.254 38.0937L165.824 40.1706L168.525 41.8063L173.431 43.8573Z" fill="#D6DECB"/>
  <path d="M153.362 50.4261L150.299 52.0617L147.936 49.8289L145.573 47.2067L143.808 44.948L142.38 46.6875L140.018 49.2058L136.071 52.2694L132.748 50.9193L137.291 47.9337L141.082 44.247L144.301 39.6257L146.3 35.6275L140.744 36.0688L136.694 36.5362L135.214 33.4986L139.161 33.4466L143.964 33.161L147.417 32.8235L148.066 32.2783L149.935 34.4332L148.04 38.691L145.781 42.5854L147.625 45.3115L150.065 47.8298L153.362 50.4261Z" fill="#D6DECB"/>
  <path d="M130.671 40.0146L131.969 43.0263L124.959 42.8705L111.9 43.0782L110.576 40.1445L118.287 40.2743L123.687 40.1964L130.671 40.0146Z" fill="#D6DECB"/>
  <path d="M105.696 32.0714L105.514 42.0929L104.813 46.7142L103.203 50.1932L100.607 53.4644L96.7388 52.4519L100.114 49.2845L101.801 46.4546L102.58 42.1708L102.71 36.6927L102.45 30.8252L105.696 32.0714ZM96.3493 32.7983L96.1935 38.562L96.2714 44.0401L92.9482 44.8189L93.2598 39.6524L93.2079 36.1475L93.0261 31.8637L96.3493 32.7983Z" fill="#D6DECB"/>
  <path d="M90.1698 31.2402L89.7544 33.2133L88.3524 34.096L86.1716 33.9662L84.8735 32.3565L85.5485 30.3055L87.0283 29.293L88.9236 29.7343L90.1698 31.2402ZM85.7302 34.9268L84.3023 38.951L82.3291 43.3646L79.9406 46.7397L77.6299 49.4138L74.0212 52.4255L70.4903 51.0754L75.2674 47.7782L78.4348 44.2214L80.9272 40.0414L82.0176 36.5365L78.5646 36.6663L74.1769 36.9259L69.4258 37.3673L68.0498 34.2258L73.6317 34.1479L79.1358 33.8624L82.6926 33.4989L83.6792 32.9277L85.7302 34.9268ZM88.7159 31.4738L88.2486 30.7988L87.3658 30.5392L86.561 31.0325L86.1716 32.019L86.7947 32.9537H88.0668L88.664 32.3825L88.7159 31.4738Z" fill="#D6DECB"/>
  <path d="M58.3657 42.5075L56.9378 44.0912L54.5492 44.2989L53.5107 42.9229L53.5367 40.794L54.8608 39.5478L56.9637 39.418L58.0801 40.7161L58.3657 42.5075Z" fill="#D6DECB"/>
  <path d="M43.4377 40.0146L44.7358 43.0263L37.726 42.8705L24.6669 43.0782L23.3428 40.1445L31.0536 40.2743L36.4538 40.1964L43.4377 40.0146Z" fill="#D6DECB"/>
  <path d="M11.6339 36.3292L9.08956 37.9908L6.5712 36.1215L4.52017 34.2782L6.02599 31.8896L11.6339 36.3292ZM20.8765 39.4447L18.7476 42.8198L15.3465 46.5844L10.4656 50.271L5.92214 52.2701L2.41722 50.0893L8.41454 47.9085L11.8935 45.5978L16.7485 40.6649L19.3707 36.0436L20.8765 39.4447ZM7.71355 40.9505L5.32501 43.1573L2.78069 41.7554L0.677734 40.1717L1.74219 37.5235L4.33844 39.237L7.71355 40.9505Z" fill="#D6DECB"/>
  <path fill-rule="evenodd" clip-rule="evenodd" d="M187.788 44.0915L189.216 42.5078L188.931 40.7164L187.814 39.4183L185.711 39.5481L184.387 40.7943L184.361 42.9232L185.4 44.2992L187.788 44.0915ZM189.311 42.536L187.831 44.1776L185.358 44.3927L184.271 42.9527L184.298 40.7552L185.674 39.4607L187.853 39.3262L189.015 40.6772L189.311 42.536Z" fill="#D6DECB"/>
  <path fill-rule="evenodd" clip-rule="evenodd" d="M173.43 43.8577L168.523 41.8066L165.823 40.171L163.253 38.094L163.383 31.1361L160.293 30.3832L160.449 37.0296L160.423 42.1442L160.319 47.3366L159.826 53.6974L163.149 53.0743L163.019 45.9866L163.123 41.547L165.693 43.4423L168.03 44.6625L170.912 46.1164L173.43 43.8577ZM163.209 41.7213L165.646 43.5184L167.988 44.7419L167.99 44.7424L170.926 46.2239L173.595 43.8297L168.564 41.7266L165.875 40.0976L163.343 38.0519L163.474 31.0661L160.201 30.2686L160.359 37.0291V37.0302L160.333 42.1424L160.333 42.1437L160.23 47.3297L160.23 47.3348L159.728 53.8069L163.24 53.1484L163.109 45.9887L163.109 45.985L163.209 41.7213Z" fill="#D6DECB"/>
  <path fill-rule="evenodd" clip-rule="evenodd" d="M153.361 50.4263L150.064 47.83L147.624 45.3117L145.78 42.5856L148.039 38.6913L149.934 34.4334L148.065 32.2785L147.416 32.8238L143.963 33.1613L139.16 33.4469L135.214 33.4988L136.694 36.5364L140.744 36.0691L146.3 35.6277L144.301 39.6259L141.081 44.2472L137.291 47.9339L132.747 50.9196L136.07 52.2696L140.017 49.206L142.379 46.6877L143.807 44.9482L145.573 47.2069L147.935 49.8291L150.298 52.0619L153.361 50.4263ZM143.806 45.0914L145.502 47.2621L147.869 49.8891L150.283 52.1712L153.524 50.4407L150.124 47.7634L147.694 45.255L145.886 42.582L148.117 38.7362L150.039 34.4178L148.075 32.1533L147.38 32.7374L143.958 33.0719L143.954 33.0722L139.159 33.3573L139.155 33.3575L135.071 33.4111L136.641 36.6326L140.751 36.1583L140.754 36.158L146.149 35.7295L144.223 39.5801L141.013 44.189L137.234 47.8637L132.556 50.9384L136.085 52.372L140.077 49.2724L142.445 46.7489L143.806 45.0914Z" fill="#D6DECB"/>
  <path fill-rule="evenodd" clip-rule="evenodd" d="M130.671 40.0149L123.687 40.1966L118.287 40.2745L110.576 40.1447L111.9 43.0785L124.959 42.8708L131.969 43.0265L130.671 40.0149ZM124.961 42.9603L111.843 43.1689L110.437 40.0528L118.286 40.185L123.685 40.1071L123.686 40.1071L130.729 39.9238L132.107 43.1191L124.961 42.9603Z" fill="#D6DECB"/>
  <path fill-rule="evenodd" clip-rule="evenodd" d="M105.513 42.0917L105.695 32.0702L102.449 30.824L102.709 36.6915L102.579 42.1695L101.8 46.4533L100.113 49.2832L96.7377 52.4507L100.606 53.4632L103.202 50.1919L104.812 46.713L105.513 42.0917ZM100.042 49.2266L101.715 46.4214L102.49 42.1604L102.619 36.6924L102.354 30.6914L105.785 32.0091L105.602 42.1052L104.899 46.739L103.279 50.2392L100.64 53.5646L96.5583 52.4962L100.042 49.2266ZM96.1925 38.5608L96.3483 32.7971L93.0251 31.8625L93.2068 36.1463L93.2587 39.6512L92.9472 44.8177L96.2704 44.0388L96.1925 38.5608ZM96.282 38.5595L96.4396 32.7298L92.9304 31.7428L93.1173 36.1476L93.1174 36.1501L93.1692 39.6492L92.8506 44.9323L96.3609 44.1096L96.282 38.5595Z" fill="#D6DECB"/>
  <path fill-rule="evenodd" clip-rule="evenodd" d="M90.2657 31.2158L89.8336 33.2683L88.3752 34.1865L86.1261 34.0527L84.7726 32.3743L85.4723 30.2482L87.0097 29.1963L88.9727 29.6534L90.2657 31.2158ZM85.8332 34.9022L84.3837 38.9871L82.4067 43.4086L80.0081 46.798L77.6923 49.4773L74.0376 52.5273L70.2989 51.0978L75.207 47.7101L78.3617 44.1676L80.8442 40.0041L81.8939 36.6301L78.5693 36.7551L78.5674 36.7552L74.1846 37.0145L74.1816 37.0147L69.3691 37.4618L67.9131 34.1376L73.6265 34.058L73.6299 34.0579L79.1283 33.7725L82.6638 33.4112L83.6925 32.8157L85.8332 34.9022ZM82.692 33.4983L79.1352 33.8618L73.6311 34.1474L68.0492 34.2253L69.4252 37.3667L74.1763 36.9254L78.564 36.6657L82.017 36.5359L80.9266 40.0409L78.4342 44.2208L75.2668 47.7777L70.4897 51.0749L74.0206 52.4249L77.6293 49.4133L79.94 46.7392L82.3285 43.364L84.3017 38.9504L85.7296 34.9263L83.6786 32.9272L82.692 33.4983ZM88.248 30.7982L87.3652 30.5386L86.5604 31.0319L86.171 32.0185L86.7941 32.9531H88.0662L88.6634 32.3819L88.7153 31.4733L88.248 30.7982ZM88.6242 31.4989L88.1924 30.8752L87.3781 30.6357L86.6327 31.0926L86.2715 32.0078L86.842 32.8636H88.0303L88.576 32.3416L88.6242 31.4989ZM89.7538 33.2127L90.1692 31.2396L88.923 29.7338L87.0277 29.2924L85.5479 30.3049L84.8729 32.356L86.171 33.9656L88.3518 34.0955L89.7538 33.2127Z" fill="#D6DECB"/>
  <path fill-rule="evenodd" clip-rule="evenodd" d="M56.9369 44.0915L58.3648 42.5078L58.0792 40.7164L56.9628 39.4183L54.8599 39.5481L53.5358 40.7943L53.5098 42.9232L54.5483 44.2992L56.9369 44.0915ZM58.4599 42.536L56.9797 44.1776L54.5067 44.3927L53.4199 42.9527L53.4467 40.7552L54.8221 39.4607L57.0017 39.3262L58.1636 40.6772L58.4599 42.536Z" fill="#D6DECB"/>
  <path fill-rule="evenodd" clip-rule="evenodd" d="M376.369 50.4254L373.072 47.8291L370.631 45.3108L368.788 42.5847L371.047 38.6904L372.942 34.4325L371.073 32.2776L370.424 32.8228L366.971 33.1604L362.168 33.4459L358.221 33.4979L359.701 36.5355L363.751 36.0682L369.307 35.6268L367.308 39.625L364.089 44.2463L360.298 47.933L355.755 50.9187L359.078 52.2687L363.024 49.2051L365.387 46.6868L366.815 44.9473L368.58 47.206L370.943 49.8282L373.306 52.061L376.369 50.4254ZM366.798 46.3791L367.894 47.782L370.302 50.4542L373.159 53.1542L378 50.5697L373.673 47.163L371.329 44.7442L369.844 42.5483L371.845 39.0981L373.992 34.2762L371.172 31.0254L370.06 31.9588L366.901 32.2677L362.135 32.551L356.798 32.6213L359.174 37.4975L363.838 36.9593L367.797 36.6448L366.537 39.1666L363.403 43.6643L359.735 47.2317L353.839 51.1066L359.219 53.2924L363.629 49.8691L366.06 47.2777L366.798 46.3791Z" fill="#D6DECB"/>
  <path fill-rule="evenodd" clip-rule="evenodd" d="M339.763 37.8084L336.077 35.264L333.195 32.4861L332.001 35.7573L334.337 37.7305L336.856 39.7555L339.763 37.8084ZM336.645 34.5687L332.826 30.8867L330.945 36.0378L333.768 38.4214L336.807 40.8654L341.356 37.8195L336.645 34.5687ZM348.201 42.2999L350.33 38.9507L348.824 35.7314L346.176 40.2488L342.334 44.4547L337.868 47.3885L331.897 49.6472L335.376 51.7502L340.724 49.1799L344.8 46.0644L348.201 42.2999ZM337.459 46.5861L341.748 43.7681L345.452 39.7146L348.914 33.809L351.349 39.0164L348.916 42.8439L345.409 46.7257L341.195 49.947L335.327 52.7668L329.858 49.4611L337.459 46.5861Z" fill="#D6DECB"/>
  <path fill-rule="evenodd" clip-rule="evenodd" d="M321.979 36.6393L317.487 37.0288L312.425 37.2884L307.232 37.1846L308.323 39.9106L313.178 39.7029L318.864 39.3654L318.656 42.377L314.398 42.6886L308.141 42.8444L309.128 45.3887L318.448 44.8175L317.955 48.3484L312.555 48.6859H306.843L307.959 51.36L312.892 51.1004L321.174 50.9446L321.927 48.2965L320.681 48.2186L321.122 43.2598L321.979 36.6393ZM322.012 43.3569L321.654 47.3824L323.092 47.4723L321.854 51.8273L312.924 51.9952L307.376 52.2872L305.499 47.7906H312.527L317.169 47.5005L317.41 45.7781L308.529 46.3223L306.846 41.9811L314.354 41.7941L317.816 41.5408L317.9 40.3194L313.223 40.597L307.727 40.8322L305.899 36.2625L312.411 36.3927L317.426 36.1355L323.01 35.6514L322.012 43.3569Z" fill="#D6DECB"/>
  <path fill-rule="evenodd" clip-rule="evenodd" d="M291.705 36.3973L287.597 39.0798L284.545 36.8137L281.901 34.4377L284.341 30.5674L291.705 36.3973ZM300.429 39.517L298.004 43.361L294.494 47.2459L289.462 51.0467L284.391 53.2782L278.922 49.8753L286.549 47.1019L289.861 44.9018L294.568 40.1191L298.01 34.0537L300.429 39.517ZM295.289 40.6633L290.434 45.5961L286.955 47.9068L280.958 50.0876L284.463 52.2685L289.006 50.2694L293.887 46.5827L297.288 42.8181L299.417 39.443L297.911 36.0419L295.289 40.6633ZM287.807 40.7331L283.999 44.2513L280.834 42.5071L278.132 40.4725L279.861 36.1708L283.33 38.4601L287.807 40.7331ZM282.879 39.2353L280.283 37.5218L279.218 40.17L281.321 41.7537L283.866 43.1557L286.254 40.9488L282.879 39.2353ZM290.174 36.3275L284.567 31.888L283.061 34.2765L285.112 36.1198L287.63 37.9891L290.174 36.3275Z" fill="#D6DECB"/>
  <path fill-rule="evenodd" clip-rule="evenodd" d="M273.536 35.5441L270.788 41.6188L267.688 46.2684L263.738 50.2725L258.235 53.7116L252.684 50.8944L258.829 47.9613L261.978 45.7798L264.185 43.2752L266.493 40.0139L267.296 38.1747L265.232 38.3102L262.399 38.6585L260.849 40.2316L257.137 43.3544L251.887 41.2796L257.653 37.1798L260.308 34.4012L263.48 29.2822L266.898 32.7433L266.073 33.9597L269.581 33.6279L270.553 32.4785L273.536 35.5441ZM264.265 35.03L265.745 32.8492L263.642 30.7203L261.02 34.9522L258.242 37.8599L253.75 41.0533L256.969 42.3255L260.241 39.5735L261.98 37.808L265.148 37.4186L268.704 37.1849L267.276 40.4562L264.888 43.8313L262.577 46.4535L259.28 48.7382L254.711 50.919L258.19 52.6845L263.174 49.569L266.991 45.7006L270.003 41.1831L272.469 35.731L270.6 33.8098L270.028 34.4848L264.265 35.03Z" fill="#D6DECB"/>
  <path fill-rule="evenodd" clip-rule="evenodd" d="M244.272 45.5445L247.31 42.6886L246.661 38.4308L243.312 42.5069L240.066 44.9993L236.821 46.9205L233.342 48.2705L233.368 43.3377L233.68 34.2768L230.356 33.0565L230.616 39.2875V43.9867L230.33 48.9456L229.681 49.7764L231.758 51.8533L237.029 49.8542L240.793 47.8811L244.272 45.5445ZM229.453 48.6148L228.488 49.8493L231.535 52.8957L237.397 50.6722L241.252 48.6514L244.832 46.2469L248.266 43.0187L247.243 36.3116L242.685 41.8593L239.564 44.2564L236.428 46.1125L234.244 46.9601L234.263 43.3554L234.597 33.6598L229.406 31.7539L229.721 39.3062V43.961L229.453 48.6148Z" fill="#D6DECB"/>
  <path fill-rule="evenodd" clip-rule="evenodd" d="M223.44 36.5244L221.89 40.1852L220.131 43.1704L217.947 46.3546L212.332 45.8441L215.936 41.3748L216.471 40.4599L210.326 41.8473V44.1077L210.396 47.331L210.784 47.6953L215.019 48.4371L223.582 48.0579L220.774 52.9617L214.266 52.9046L208.123 51.968L205.864 49.7092L205.818 43.0622L201.523 44.2628L198.306 39.9167L205.79 38.5222L205.569 30.1133L210.582 31.7981L210.392 37.3796L218.541 35.348L219.807 34.3988L223.44 36.5244ZM218.933 36.1729L209.457 38.5354L209.665 32.4343L206.497 31.3698L206.705 39.2624L199.877 40.5346L201.876 43.2346L206.705 41.8846L206.757 49.3358L208.549 51.1272L214.338 52.0099L220.258 52.0619L221.997 49.0243L214.961 49.3358L210.366 48.531L209.509 47.7261L209.431 44.1174V41.1317L218.284 39.1326L216.675 41.8846L214.079 45.1039L217.506 45.4155L219.375 42.6894L221.088 39.7816L222.309 36.8998L219.868 35.4719L218.933 36.1729Z" fill="#D6DECB"/>
</svg>
